HIERARCHY
ROOT hip
{
  OFFSET 0 0 0
  CHANNELS 6 Xposition Yposition Zposition Zrotation Yrotation Xrotation
  JOINT abdomen
  {
    OFFSET 0 20.6881 -0.73152
    CHANNELS 3 Zrotation Xrotation Yrotation
    JOINT chest
    {
      OFFSET 0 11.7043 -0.48768
      CHANNELS 3 Zrotation Xrotation Yrotation
      JOINT neck
      {
        OFFSET 0 22.1894 -2.19456
        CHANNELS 3 Zrotation Xrotation Yrotation
        JOINT head
        {
          OFFSET -0.24384 7.07133 1.2192
          CHANNELS 3 Zrotation Xrotation Yrotation
          JOINT leftEye
          {
            OFFSET 4.14528 8.04674 8.04672
            CHANNELS 3 Zrotation Xrotation Yrotation
            End Site
            {
              OFFSET 1 0 0
            }
          }
          JOINT rightEye
          {
            OFFSET -3.6576 8.04674 8.04672
            CHANNELS 3 Zrotation Xrotation Yrotation
            End Site
            {
              OFFSET 1 0 0
            }
          }
        }
      }
      JOINT rCollar
      {
        OFFSET -2.68224 19.2634 -4.8768
        CHANNELS 3 Zrotation Xrotation Yrotation
        JOINT rShldr
        {
          OFFSET -8.77824 -1.95073 1.46304
          CHANNELS 3 Zrotation Xrotation Yrotation
          JOINT rForeArm
          {
            OFFSET -28.1742 -1.7115 0.48768
            CHANNELS 3 Zrotation Xrotation Yrotation
            JOINT rHand
            {
              OFFSET -22.5879 0.773209 7.07136
              CHANNELS 3 Zrotation Xrotation Yrotation
              JOINT rThumb1
              {
                OFFSET -1.2192 -0.487915 3.41376
                CHANNELS 3 Zrotation Xrotation Yrotation
                JOINT rThumb2
                {
                  OFFSET -3.37035 -0.52449 3.41376
                  CHANNELS 3 Zrotation Xrotation Yrotation
                  End Site
                  {
                    OFFSET -1.78271 -1.18214 1.43049
                  }
                }
              }
              JOINT rIndex1
              {
                OFFSET -7.75947 0.938293 5.60832
                CHANNELS 3 Zrotation Xrotation Yrotation
                JOINT rIndex2
                {
                  OFFSET -2.54057 -0.884171 1.56538
                  CHANNELS 3 Zrotation Xrotation Yrotation
                  End Site
                  {
                    OFFSET -1.62519 -0.234802 1.16502
                  }
                }
              }
              JOINT rMid1
              {
                OFFSET -8.24714 1.18213 3.41376
                CHANNELS 3 Zrotation Xrotation Yrotation
                JOINT rMid2
                {
                  OFFSET -3.10165 -0.590103 1.0647
                  CHANNELS 3 Zrotation Xrotation Yrotation
                  End Site
                  {
                    OFFSET -2.48547 -0.328903 0.83742
                  }
                }
              }
              JOINT rRing1
              {
                OFFSET -8.82822 0.546677 1.51678
                CHANNELS 3 Zrotation Xrotation Yrotation
                JOINT rRing2
                {
                  OFFSET -2.60934 -0.819778 -0.0198488
                  CHANNELS 3 Zrotation Xrotation Yrotation
                  End Site
                  {
                    OFFSET -2.33842 -0.294052 0.168128
                  }
                }
              }
              JOINT rPinky1
              {
                OFFSET -8.27202 -0.0477905 -0.4584
                CHANNELS 3 Zrotation Xrotation Yrotation
                JOINT rPinky2
                {
                  OFFSET -1.82734 -0.647385 -0.700984
                  CHANNELS 3 Zrotation Xrotation Yrotation
                  End Site
                  {
                    OFFSET -1.69225 -0.51767 -0.607171
                  }
                }
              }
            }
          }
        }
      }
      JOINT lCollar
      {
        OFFSET 2.68224 19.2634 -4.8768
        CHANNELS 3 Zrotation Xrotation Yrotation
        JOINT lShldr
        {
          OFFSET 8.77824 -1.95073 1.46304
          CHANNELS 3 Zrotation Xrotation Yrotation
          JOINT lForeArm
          {
            OFFSET 28.1742 -1.7115 0.48768
            CHANNELS 3 Zrotation Xrotation Yrotation
            JOINT lHand
            {
              OFFSET 22.5879 0.773209 7.07136
              CHANNELS 3 Zrotation Xrotation Yrotation
              JOINT lThumb1
              {
                OFFSET 1.2192 -0.487915 3.41376
                CHANNELS 3 Zrotation Xrotation Yrotation
                JOINT lThumb2
                {
                  OFFSET 3.37035 -0.52449 3.41376
                  CHANNELS 3 Zrotation Xrotation Yrotation
                  End Site
                  {
                    OFFSET 1.78271 -1.18214 1.43049
                  }
                }
              }
              JOINT lIndex1
              {
                OFFSET 7.75947 0.938293 5.60832
                CHANNELS 3 Zrotation Xrotation Yrotation
                JOINT lIndex2
                {
                  OFFSET 2.54057 -0.884171 1.56538
                  CHANNELS 3 Zrotation Xrotation Yrotation
                  End Site
                  {
                    OFFSET 1.62519 -0.234802 1.16502
                  }
                }
              }
              JOINT lMid1
              {
                OFFSET 8.24714 1.18213 3.41376
                CHANNELS 3 Zrotation Xrotation Yrotation
                JOINT lMid2
                {
                  OFFSET 3.10165 -0.590103 1.0647
                  CHANNELS 3 Zrotation Xrotation Yrotation
                  End Site
                  {
                    OFFSET 2.48547 -0.328903 0.83742
                  }
                }
              }
              JOINT lRing1
              {
                OFFSET 8.82822 0.546677 1.51678
                CHANNELS 3 Zrotation Xrotation Yrotation
                JOINT lRing2
                {
                  OFFSET 2.60934 -0.819778 -0.0198488
                  CHANNELS 3 Zrotation Xrotation Yrotation
                  End Site
                  {
                    OFFSET 2.33842 -0.294052 0.168128
                  }
                }
              }
              JOINT lPinky1
              {
                OFFSET 8.27202 -0.0477905 -0.4584
                CHANNELS 3 Zrotation Xrotation Yrotation
                JOINT lPinky2
                {
                  OFFSET 1.82734 -0.647385 -0.700984
                  CHANNELS 3 Zrotation Xrotation Yrotation
                  End Site
                  {
                    OFFSET 1.69225 -0.51767 -0.607171
                  }
                }
              }
            }
          }
        }
      }
    }
  }
  JOINT rButtock
  {
    OFFSET -8.77824 4.35084 1.2192
    CHANNELS 3 Zrotation Xrotation Yrotation
    JOINT rThigh
    {
      OFFSET 0 -1.70687 -2.19456
      CHANNELS 3 Zrotation Xrotation Yrotation
      JOINT rShin
      {
        OFFSET 0 -36.8199 0.73152
        CHANNELS 3 Zrotation Xrotation Yrotation
        JOINT rFoot
        {
          OFFSET 0.73152 -45.1104 -5.12064
          CHANNELS 3 Zrotation Xrotation Yrotation
          End Site
          {
            OFFSET -1.1221 -3.69964 12.103
          }
        }
      }
    }
  }
  JOINT lButtock
  {
    OFFSET 8.77824 4.35084 1.2192
    CHANNELS 3 Zrotation Xrotation Yrotation
    JOINT lThigh
    {
      OFFSET 0 -1.70687 -2.19456
      CHANNELS 3 Zrotation Xrotation Yrotation
      JOINT lShin
      {
        OFFSET 0 -36.8199 0.73152
        CHANNELS 3 Zrotation Xrotation Yrotation
        JOINT lFoot
        {
          OFFSET -0.73152 -45.1104 -5.12064
          CHANNELS 3 Zrotation Xrotation Yrotation
          End Site
          {
            OFFSET 1.1221 -3.69964 12.103
          }
        }
      }
    }
  }
}
MOTION
Frames:	8
Frame Time:	0.03333
0.0 0.0 0.0 0.0 0.0 0.0 0.0 0.0 0.0 0.0 0.0 0.0 0.0 0.0 0.0 0.0 0.0 0.0 0.0 0.0 0.0 0.0 0.0 0.0 0.0 0.0 0.0 0.0 0.0 0.0 0.0 0.0 0.0 0.0 0.0 0.0 0.0 0.0 0.0 0.0 0.0 0.0 0.0 0.0 0.0 0.0 0.0 0.0 0.0 0.0 0.0 0.0 0.0 0.0 0.0 0.0 0.0 0.0 0.0 0.0 0.0 0.0 0.0 0.0 0.0 0.0 0.0 0.0 0.0 0.0 0.0 0.0 0.0 0.0 0.0 0.0 0.0 0.0 0.0 0.0 0.0 0.0 0.0 0.0 0.0 0.0 0.0 0.0 0.0 0.0 0.0 0.0 0.0 0.0 0.0 0.0 0.0 0.0 0.0 0.0 0.0 0.0 0.0 0.0 0.0 0.0 0.0 0.0 0.0 0.0 0.0 0.0 0.0 0.0 0.0 0.0 0.0 0.0 0.0 0.0 0.0 0.0 0.0 0.0 0.0 0.0 0.0 0.0 0.0 0.0 0.0 0.0
-0.3844 71.5463 -2.7803 174.287506 0.611951 -178.053209 -13.831563 15.816264 -95.75996 6.575751 3.11383 104.380969 -14.929134 33.59368 -103.353449 47.35569 22.446954 63.045258 0.001739 0.0 0.00146 0.001213 -0.0 -0.000835 1.99006 -14.052968 -2.880646 -51.971737 63.9367 118.663446 -63.052383 -9.137842 -25.352303 41.118944 -70.736904 26.064514 93.02829 -51.084784 40.501077 -59.996937 30.598507 19.321797 -35.097495 35.161847 26.61093 -75.713237 49.817756 55.247617 -10.975607 25.789836 7.640559 -148.071145 31.598839 134.515584 -0.015428 -1.323141 -0.415928 7.020351 29.716011 4.675148 -145.175142 12.068053 -141.821391 -162.417242 55.864829 -146.664197 82.877041 68.300529 -86.000714 -10.028208 -62.372318 -66.564796 11.113241 -75.111969 -109.638259 7.110737 39.061672 -3.532734 1.583964 1.556087 -0.264381 133.28111 -33.151287 -116.252039 -10.280959 -18.182821 4.585777 -123.950419 -61.938479 -64.434376 -1.280154 -3.803273 0.68016 -179.866723 -49.53683 -141.239506 145.098426 -1.52335 178.650336 154.31125 -10.069803 177.871429 18.495548 -31.692418 17.706154 126.685508 -30.793622 125.629304 179.997416 75.750061 0.001768 162.599339 6.766806 -110.605084 -77.058077 -17.869565 53.409376 96.39756 7.009005 -16.10265 -0.000311 -0.000419 -0.0 -4.162879 -34.966521 -24.15795 -46.372844 60.244323 123.363019 -98.886722 26.512639 -5.589118
-0.3198 71.7821 -4.4246 174.805371 1.450475 -178.992695 -12.435814 15.337966 -94.56939 6.185806 3.170718 102.659562 -4.792538 18.842898 9.764072 -3.886709 -34.096258 -42.582064 0.001891 -0.0 -0.002302 0.001891 -0.0 -0.002302 -155.614178 -4.23616 161.991735 -21.681435 38.777336 -25.666612 66.253189 -13.842867 -41.329964 -128.889476 57.168754 105.39991 -0.492385 0.484349 0.077399 -37.283429 26.029907 33.584286 -151.353158 -17.158537 121.132826 145.183903 -67.163503 87.063376 -169.090893 -33.247357 145.373914 -83.337109 63.986261 75.209549 -70.380208 -72.12993 -87.280123 -58.195517 -82.330239 -84.100963 26.977028 80.122221 10.135671 -155.660625 35.918545 -147.115415 13.743862 42.431424 -15.569727 -79.688153 -20.481162 -95.175606 0.457757 -2.179614 -123.655026 8.761617 50.295495 -5.955001 169.572986 -7.253473 -89.929781 -178.464118 -17.727064 -93.600787 90.225793 41.072602 -75.796632 174.89184 -27.585598 -113.71913 -68.983683 -80.154102 -40.578086 -2.196888 2.407705 -0.499665 -0.000837 0.063795 -0.020337 -9.348152 11.534751 -1.487534 168.142225 80.281067 148.035711 26.02058 -40.515171 26.151275 0.000208 -0.000556 -0.0 -41.684551 -60.796938 64.030474 72.208975 -24.01736 -2.983518 -174.307884 87.219678 104.856651 0.000345 0.00068 0.000172 -3.311992 -34.740798 -180.0 2.582223 -76.573014 -58.240852 -175.318722 -4.508821 84.62498
-0.0335 72.07719999999999 -6.1921 174.860422 2.388884 179.93619 -15.920561 16.76118 44.68661 -0.42228 -10.495643 -35.638933 4.102938 22.28299 59.501105 -35.809341 -11.975285 -94.792739 0.000515 -0.0 -0.000675 0.000953 0.0 0.001744 0.162907 -0.98994 -0.219674 -76.924999 35.929064 131.981362 166.951547 -33.878644 -136.405731 -13.713948 -7.555768 -3.41176 -89.135937 38.42725 50.299299 -151.046531 -30.129353 80.437952 -19.170765 24.114594 13.380582 -13.19136 26.552715 8.305682 -0.570789 1.648579 0.320293 -162.986816 -3.909722 143.257917 -0.000906 -0.018391 -0.00673 -156.481366 -25.19107 174.798816 -156.3827 53.734424 -150.116765 -34.60774 -45.470483 -34.754249 13.744968 42.431096 -15.570834 -93.859388 -14.962534 -94.00178 179.934889 -12.110207 -22.021208 -141.39441 -46.089143 -133.307817 172.354954 -10.036037 -89.938835 -144.98937 -47.475302 -98.207433 46.209699 39.651709 -36.319065 -84.733706 -62.519454 -37.556314 36.034835 51.723852 -29.831061 42.044863 58.504028 -36.269292 145.12042 0.310727 179.224443 -2.630153 -43.838846 17.911085 -8.367874 26.426846 -7.361728 149.915003 18.692947 145.128397 179.985358 75.751013 0.010018 163.330167 9.358837 -118.50505 -62.962095 -33.617598 12.442892 7.883837 31.206616 69.779424 -0.000717 -0.000105 0.000921 -2.715639 -31.782929 -180.0 20.645551 -64.045489 168.714168 63.051065 35.625063 27.307443
0.3382 72.39320000000001 -8.0848 175.080582 3.354188 178.870635 -11.366786 13.190268 -117.364772 2.364594 5.028821 125.431489 -14.481573 33.343989 -103.365055 44.834117 21.154162 66.354932 0.001655 -0.0 -0.003715 -0.004028 0.0 -0.002998 -155.614379 -4.236577 161.990432 76.295478 66.870324 -109.723548 -128.251177 -20.363886 119.34395 -173.769502 -28.852511 149.292109 -171.707102 -9.388009 89.948779 -69.457034 1.268391 20.421275 -19.171755 24.114501 13.379989 -139.918849 19.746658 104.128805 -36.033765 51.724139 29.83092 -163.098347 -4.755973 143.254624 0.004848 1.771437 0.556154 -77.53045 78.794946 90.797935 -126.798465 -26.62086 -124.514136 -152.51564 29.771799 -145.430484 0.009725 0.056184 -0.01184 108.768796 -19.814198 -131.618722 -113.274048 -45.612704 95.985809 -178.357892 40.419572 -160.074432 -1.591232 -1.575387 0.223822 -63.927749 -79.59276 2.658198 159.783261 -32.611451 -122.692381 6.841828 32.235696 -0.493132 160.826155 -7.141821 -143.316325 -2.781439 1.268704 -0.534214 -0.00146 0.063742 -0.020229 -11.404557 -44.57183 5.518594 -11.40613 38.078564 -9.690375 116.01474 -42.11265 114.135636 -179.998195 75.749406 -0.001235 163.659638 12.075975 -81.169066 -51.839323 2.24004 96.108723 22.46755 3.769002 -25.651377 0.0 0.000236 -0.000169 -2.349848 -28.699591 -180.0 32.987542 -65.59414 122.889712 -149.528762 59.498434 -121.080589
0.9771 72.68860000000001 -10.1107 175.345502 3.812325 177.958437 -10.506782 12.758148 -106.66351 3.022871 4.406835 114.582083 7.484838 28.216231 96.282993 -40.311748 14.014739 -122.436712 -0.000708 0.0 -0.004772 0.000276 0.0 0.002829 -150.42724 20.642176 155.571163 -90.304564 -75.327341 -47.90201 160.939722 -55.531233 -142.654041 -14.03732 -18.224013 -5.184167 179.141474 -18.271947 89.128614 -176.243539 -12.639046 97.857184 -50.387716 40.82543 40.024942 6.600483 -0.028489 -2.797029 89.034834 -81.393823 59.759985 -163.200778 -3.917462 143.058311 -145.118964 0.227238 -179.198222 -149.261453 -39.31884 -171.824264 32.021773 83.320271 6.224699 -156.378032 38.237243 -147.326934 59.830987 -86.721548 81.631553 -56.071356 -7.218674 48.584486 17.570291 81.348648 -134.620304 17.099563 70.202194 -15.072083 178.92737 -16.453729 -89.422176 -25.518167 -67.988277 -19.136294 -73.419858 -73.571361 -26.563889 171.504662 -38.163162 -111.692562 -78.536191 -80.919692 -49.687724 -86.337877 -78.166568 -57.801912 -0.001654 0.063671 -0.020684 155.455017 -1.617986 -172.04433 3.810343 -9.064494 3.56186 -75.611726 86.549037 36.803837 -179.867913 75.748939 -0.101805 161.086608 14.261105 91.635448 57.0813 8.878201 126.438925 97.143527 -16.860949 -146.569734 -0.004173 0.000675 -0.004173 -1.126832 -25.210905 -143.424882 -45.210078 -60.37522 25.898437 130.289123 -31.924982 -170.105242
1.8381999999999998 72.8757 -12.2447 175.76459 4.015482 177.151731 -9.725185 12.832466 -81.63243 5.032912 2.670141 89.308254 1.28389 37.427806 165.455253 -11.21788 48.614816 169.276821 0.004644 0.0 0.0006 0.004299 -0.0 -0.001904 -155.649051 -4.469765 162.039603 -38.975639 -1.104038 -30.524377 48.100239 -19.671468 -70.342461 -120.747112 50.57643 100.785742 -68.482907 37.953154 35.659635 -46.13139 2.672536 47.004705 -90.224893 41.070875 75.796584 -173.90174 -26.089019 113.963767 -0.057027 0.167969 0.032188 86.237612 -78.351344 57.501887 -145.116934 0.185389 -179.186477 -153.318288 -19.049137 -176.44697 12.252901 41.424766 10.281366 55.816371 84.849124 -18.600481 -0.117647 -0.713995 0.158754 169.563042 -61.575522 -95.268554 111.788513 51.021766 125.25563 0.230317 36.580423 -9.410191 0.440958 0.435544 -0.069452 55.488978 28.690706 -50.517753 130.885735 15.214533 -109.737374 -23.009611 -28.935805 8.530846 -0.541728 -1.589905 0.29422 178.333784 -46.181019 -142.123405 0.014886 -1.323112 0.416131 156.068335 -15.22191 -173.654597 132.044105 -18.854948 129.57951 147.08628 12.119835 141.993596 0.000213 0.000152 0.0 -29.56386 -53.276949 -35.286978 -25.421713 45.777095 -110.073448 86.028626 -27.020174 -150.424954 -3.4e-05 -0.001413 0.0 -0.745377 -22.3042 -171.102727 12.413267 -65.912345 106.125059 -156.300492 60.785426 -112.692144
2.8428 72.89529999999999 -14.3985 176.209955 3.806763 176.497576 -9.83417 9.799112 -134.474653 -1.263787 4.462906 141.838082 7.177543 32.154992 120.766859 -34.908965 28.91325 -142.653353 -0.001647 -0.0 0.002545 -0.002316 0.0 -0.002543 -59.832799 -86.72141 -81.633079 -84.878626 -37.887186 -131.7687 108.459175 18.719623 -88.965094 -34.672203 29.140962 14.643923 71.831358 -48.264001 25.791121 -39.013119 19.961546 2.661783 -28.90254 31.615631 21.338078 -161.285416 -7.729306 111.0071 -175.932311 -50.680208 144.037392 -159.578446 6.362457 141.489591 -0.015135 -1.323121 -0.416066 -156.201553 -18.805679 174.064936 -126.800139 -26.620175 -124.512665 -41.790151 -49.069597 -43.069592 0.165095 0.979172 -0.219174 90.901582 -18.206479 -150.03922 -13.586149 15.428626 137.057841 -130.807291 -51.537877 -127.975819 176.927618 -14.532541 -89.658126 133.99373 13.590034 -67.672593 27.422157 30.638664 -20.099549 -1.893736 8.498667 -0.213441 39.290873 53.365149 -32.879165 -0.487086 8.311232 -1.395712 74.841304 72.960898 -92.828019 159.84135 0.100745 -176.302341 7.21019 -15.825022 6.789697 -1.931783 -2.376881 0.77371 0.001736 -0.000178 0.000868 -28.750556 -50.930065 -35.247156 -25.289784 42.356655 -112.488895 -27.303045 12.862478 136.692588 0.000317 0.001371 -0.000408 0.05758 -17.106528 -0.0 -0.195394 64.19208 80.67643 74.37742 -62.787513 -5.673475
